<svg xmlns="http://www.w3.org/2000/svg" width="38.696" height="32.998" viewBox="0 0 38.696 32.998">
  <path id="Контур_38" data-name="Контур 38" d="M32.676,33,19.966,2.316a3.753,3.753,0,0,0-6.934,0Q6.676,17.657.322,33a4.115,4.115,0,0,0,5.661,5.246,23.394,23.394,0,0,1,21.031,0A4.116,4.116,0,0,0,32.676,33ZM22.384,28.9a1.166,1.166,0,0,1-1.257.3,13.62,13.62,0,0,0-9.257,0,1.181,1.181,0,0,1-1.492-1.563l5.031-12.122a1.181,1.181,0,0,1,2.181,0L22.62,27.629A1.167,1.167,0,0,1,22.384,28.9Z" transform="translate(38.696) rotate(90)" fill="#009845"/>
</svg>
