<svg xmlns="http://www.w3.org/2000/svg" width="40" height="34" viewBox="0 0 40 34">
  <path id="Контур_99" data-name="Контур 99" d="M123.972,137.749q-6.549-15.856-13.1-31.714a3.862,3.862,0,0,0-7.144,0q-6.549,15.857-13.1,31.714a4.246,4.246,0,0,0,5.833,5.423,24.035,24.035,0,0,1,21.67,0,4.247,4.247,0,0,0,5.834-5.423Zm-10.605-4.237a1.2,1.2,0,0,1-1.3.305,13.991,13.991,0,0,0-9.538,0A1.219,1.219,0,0,1,101,132.2l5.183-12.531a1.215,1.215,0,0,1,2.247,0L113.61,132.2A1.209,1.209,0,0,1,113.366,133.511Z" transform="translate(-103.64 124.303) rotate(-90)" fill="#fff"/>
</svg>
