<svg xmlns="http://www.w3.org/2000/svg" width="33.901" height="39" viewBox="0 0 33.901 39">
  <path id="Контур_38" data-name="Контур 38" d="M33.571,33.256,20.512,2.335a3.884,3.884,0,0,0-7.124,0Q6.859,17.8.331,33.256a4.053,4.053,0,0,0,1.032,4.631,4.251,4.251,0,0,0,4.784.657,24.451,24.451,0,0,1,21.607,0,4.248,4.248,0,0,0,4.784-.658A4.052,4.052,0,0,0,33.571,33.256ZM23,29.124a1.214,1.214,0,0,1-1.291.3,14.248,14.248,0,0,0-9.511,0,1.214,1.214,0,0,1-1.288-.3,1.158,1.158,0,0,1-.245-1.28L15.83,15.629a1.222,1.222,0,0,1,2.241,0L23.24,27.846A1.159,1.159,0,0,1,23,29.124Z" transform="translate(33.901 39) rotate(180)" fill="#fff"/>
</svg>
