<svg xmlns="http://www.w3.org/2000/svg" width="199.641" height="75" viewBox="0 0 199.641 75">
  <g id="Logo" transform="translate(-67.631 -77.344)">
    <g id="Сгруппировать_19" data-name="Сгруппировать 19" transform="translate(67.631 77.344)">
      <path id="Контур_30" data-name="Контур 30" d="M132.066,134.732,111.343,84.7a11.92,11.92,0,0,0-22.025,0l-20.724,50.03a12.731,12.731,0,0,0,17.618,16.182,30.83,30.83,0,0,1,28.239,0,12.735,12.735,0,0,0,17.615-16.185Zm-5.085,12.146a9.858,9.858,0,0,1-11.22,1.5,33.691,33.691,0,0,0-30.863,0,9.875,9.875,0,0,1-13.663-12.549Q81.6,110.812,91.959,85.8a9.061,9.061,0,0,1,16.743,0q10.362,25.013,20.724,50.03A9.857,9.857,0,0,1,126.982,146.878Z" transform="translate(-67.631 -77.344)" fill="#fff"/>
      <path id="Контур_31" data-name="Контур 31" d="M136.846,150.639q-9.053-21.849-18.1-43.7a5.345,5.345,0,0,0-9.876,0q-9.053,21.85-18.1,43.7a5.861,5.861,0,0,0,8.064,7.473,33.322,33.322,0,0,1,29.956,0,5.863,5.863,0,0,0,8.065-7.473Zm-14.66-5.839a1.661,1.661,0,0,1-1.79.421,19.4,19.4,0,0,0-13.186,0,1.682,1.682,0,0,1-2.126-2.227q3.582-8.632,7.165-17.266a1.682,1.682,0,0,1,3.107,0q3.582,8.633,7.167,17.266A1.662,1.662,0,0,1,122.186,144.8Z" transform="translate(-81.103 -92.97)" fill="#fff"/>
    </g>
    <g id="Сгруппировать_21" data-name="Сгруппировать 21" transform="translate(140.43 98.594)">
      <g id="Сгруппировать_20" data-name="Сгруппировать 20" transform="translate(0 0)">
        <path id="Контур_32" data-name="Контур 32" d="M280.895,133.5c3.581,0,5.7.768,7.307,2.154a9.81,9.81,0,0,1,0,14.32c-1.607,1.388-3.726,2.155-7.307,2.155H277.06V133.5Zm8.95-1.059c-2.081-1.535-4.712-2.411-8.766-2.411h-5.9a1.768,1.768,0,0,0-1.769,1.768v22.031a1.769,1.769,0,0,0,1.769,1.77h5.9c4.054,0,6.721-.876,8.8-2.41a13.107,13.107,0,0,0-.037-20.747M304.09,145.5c-.611,0-.742.286-.742.286l4.08-9.785,4.081,9.785s-.131-.286-.742-.286Zm3.338-15.783a1.754,1.754,0,0,0-1.619,1.082l-9.356,22.489a1.753,1.753,0,0,0,3.238,1.342l1.617-3.832A3.04,3.04,0,0,1,304,148.968h6.857a3.039,3.039,0,0,1,2.693,1.827l1.616,3.832a1.753,1.753,0,0,0,3.239-1.342L309.047,130.8a1.754,1.754,0,0,0-1.619-1.082M254.814,145.5c-.611,0-.742.286-.742.286l4.08-9.785,4.081,9.785s-.131-.286-.742-.286Zm3.339-15.783a1.753,1.753,0,0,0-1.619,1.082l-9.357,22.489a1.753,1.753,0,0,0,3.239,1.342l1.616-3.832a3.039,3.039,0,0,1,2.693-1.827h6.857a3.038,3.038,0,0,1,2.692,1.827l1.617,3.832a1.753,1.753,0,0,0,3.239-1.342L259.772,130.8a1.753,1.753,0,0,0-1.619-1.082M359.438,145.5c-.611,0-.742.286-.742.286l4.08-9.785,4.08,9.785s-.131-.286-.741-.286Zm3.338-15.783a1.753,1.753,0,0,0-1.619,1.082L351.8,153.285a1.753,1.753,0,0,0,3.239,1.342l1.616-3.832a3.039,3.039,0,0,1,2.693-1.827H366.2a3.042,3.042,0,0,1,2.693,1.827l1.615,3.832a1.753,1.753,0,1,0,3.238-1.342L364.4,130.8a1.754,1.754,0,0,0-1.62-1.082m-29.213,19.807-7.228-11.339v15.7a1.826,1.826,0,0,1-3.652,0V131.327a1.612,1.612,0,0,1,2.97-.868l9.448,14.954,9.449-14.954a1.612,1.612,0,0,1,2.97.868v22.557a1.826,1.826,0,0,1-3.652,0v-15.7l-7.229,11.339a1.825,1.825,0,0,1-3.077,0" transform="translate(-247.043 -129.714)" fill="#fff"/>
      </g>
      <path id="Контур_33" data-name="Контур 33" d="M373.64,217.98q-.592,0-.267.618l2.411,4.682-2.271,8.47c-.108.411-.011.618.291.618h3.051c.256,0,.423-.176.5-.525l2.072-8.993q.374-1.678,1.562-1.678a1.031,1.031,0,0,1,1,.651,2.216,2.216,0,0,1,.174.572,3.6,3.6,0,0,1,.035.523v6.105h-2.27c-.264,0-.4.144-.4.431v2.5a.357.357,0,0,0,.4.409h5.417c.3,0,.454-.159.454-.478v-8.947a5.77,5.77,0,0,0-1.014-3.53,4.066,4.066,0,0,0-3.494-1.6,3.793,3.793,0,0,0-1.795.431,3.989,3.989,0,0,0-1.549,1.573l-.687-1.41a.678.678,0,0,0-.641-.431Zm-11.488,11.5v2.459a.382.382,0,0,0,.431.432l4.358-.013.279-.035a3.452,3.452,0,0,0,.734-.233,5.156,5.156,0,0,0,1.912-1.537,8.034,8.034,0,0,0,1.713-5.173v-.453a9.8,9.8,0,0,0-.385-2.831,6.13,6.13,0,0,0-1.364-2.493,5.183,5.183,0,0,0-2-1.421,3.478,3.478,0,0,0-.71-.174c-.077-.009-.159-.016-.245-.024h-4.263q-.432,0-.431.407v2.436c0,.3.143.453.431.453l3.355.013a1.058,1.058,0,0,1,.314.069,2.219,2.219,0,0,1,.816.583,2.739,2.739,0,0,1,.572,1.061,5.777,5.777,0,0,1,.314,1.922v.453a5.343,5.343,0,0,1-.314,1.841,4.683,4.683,0,0,1-.269.629l-.255.42a1.767,1.767,0,0,1-1.55.781h-3.006a.381.381,0,0,0-.431.43m-15.215-.045v2.551q0,.385.407.385h4.741c.3,0,.455-.168.455-.5v-2.795l-.211-7.794h3.262a.463.463,0,0,1,.524.524v10.11q0,.456.385.456h2.866c.256,0,.385-.168.385-.5V221.778a5.136,5.136,0,0,0-.594-2.877,2.866,2.866,0,0,0-2.459-.921h-7.666q-.327,0-.326.431v2.866l.209,7.77h-1.6a.339.339,0,0,0-.383.385m-16.731-10.9,2.389,13.432a.46.46,0,0,0,.5.409h2.026a11.988,11.988,0,0,0,5.848-1.55,7.815,7.815,0,0,0,2.714-2.436A8.236,8.236,0,0,0,345,224.189l.361-5.778c.024-.288-.09-.431-.338-.431h-2.959a.371.371,0,0,0-.407.385l-.409,5.765a4.426,4.426,0,0,1-2.259,3.681,7.643,7.643,0,0,1-3.2,1.071l-.455-2.69,2.457-.932a2.6,2.6,0,0,0,1.515-1.387,3.667,3.667,0,0,0,.233-.885,6.791,6.791,0,0,0,.071-.885l.046-3.647q0-.477-.407-.477h-2.808c-.255,0-.383.183-.383.547v3.483a1.091,1.091,0,0,1-.746,1.048l-.5.244-.8-4.776c-.062-.364-.245-.547-.548-.547h-2.842c-.35,0-.486.183-.409.547m-7.5-.116v2.457c0,.273.12.409.361.409h1.258v4.392c0,.311.128.465.385.465h2.772a.4.4,0,0,0,.454-.442v-7.281c0-.288-.136-.431-.408-.431h-4.392a.381.381,0,0,0-.431.431m-9.473,10.636.022-7.77h2.7q.875,0,.874.955v6.815Zm-3.6-10.59v13.432c0,.319.176.478.524.478h9.855c.271,0,.409-.159.409-.478V221.673q0-3.693-3.53-3.693h-6.827c-.286,0-.431.159-.431.477" transform="translate(-284.233 -182.068)" fill="#fff"/>
    </g>
  </g>
</svg>
